# Blender v3.2.2 OBJ File: ''
# www.blender.org
mtllib test4.mtl
o Cube_Cube.001
v -2.431205 -0.666786 0.920319
v -2.431205 1.299939 0.920319
v -2.617807 -1.866713 -1.735491
v -2.431205 1.299939 -1.123450
v -2.580688 -1.834994 2.819717
v 1.156655 2.362646 3.302337
v 1.262211 -0.666786 -1.123450
v 1.609376 4.849016 -2.345576
vt 0.375000 0.000000
vt 0.625000 0.000000
vt 0.625000 0.250000
vt 0.375000 0.250000
vt 0.625000 0.500000
vt 0.375000 0.500000
vt 0.625000 0.750000
vt 0.375000 0.750000
vt 0.625000 1.000000
vt 0.375000 1.000000
vt 0.125000 0.500000
vt 0.125000 0.750000
vt 0.875000 0.500000
vt 0.875000 0.750000
vn -0.9990 0.0326 0.0313
vn -0.0361 -0.0678 -0.9970
vn 0.8958 -0.3565 0.2654
vn -0.7141 0.3873 0.5831
vn 0.0038 -1.0000 0.0069
vn -0.5288 0.8162 0.2327
usemtl None
s off
f 1/1/1 2/2/1 4/3/1 3/4/1
f 3/4/2 4/3/2 8/5/2 7/6/2
f 7/6/3 8/5/3 6/7/3 5/8/3
f 5/8/4 6/7/4 2/9/4 1/10/4
f 3/11/5 7/6/5 5/8/5 1/12/5
f 8/5/6 4/13/6 2/14/6 6/7/6
